<?xml version="1.0" ?><svg id="Layer_1" style="enable-background:new 0 0 512 512;" version="1.1" viewBox="0 0 512 512" xml:space="preserve" xmlns="http://www.w3.org/2000/svg" xmlns:xlink="http://www.w3.org/1999/xlink"><g><path d="M6,246.6h127.3c0.9-37.4,6.9-73.9,17.7-108.8c-31.4-8.6-61.9-21.1-90.9-37.5C28,140.8,8,191.4,6,246.6z" id="XMLID_16_"/><path d="M133.3,265.4H6c2,55.2,22,105.8,54.1,146.2c28.9-16.4,59.5-28.9,90.9-37.5   C140.2,339.4,134.1,302.8,133.3,265.4z" id="XMLID_15_"/><path d="M246.6,265.4h-94.4c0.9,35.8,6.7,70.8,17.2,104.2c25.4-5.6,51.3-8.8,77.2-9.4V265.4z" id="XMLID_14_"/><path d="M246.6,246.6v-94.8c-25.9-0.6-51.8-3.8-77.2-9.4c-10.5,33.4-16.4,68.4-17.2,104.2H246.6z" id="XMLID_13_"/><path d="M246.6,379.1c-23.8,0.6-47.6,3.4-71,8.5c16,43.1,39.9,83.1,71,118.3V379.1z" id="XMLID_12_"/><path d="M342.4,142.4c-25.3,5.6-51.1,8.7-77,9.3v94.8h94.2C358.8,211.4,353,176.3,342.4,142.4z" id="XMLID_11_"/><path d="M265.4,132.9c23.8-0.6,47.5-3.4,70.8-8.4c-15.7-42.5-39.3-82.7-70.8-118.3V132.9z" id="XMLID_10_"/><path d="M246.6,132.9V6.1c-31.1,35.2-55,75.2-71,118.3C198.9,129.4,222.7,132.3,246.6,132.9z" id="XMLID_9_"/><path d="M157,119.9c14.6-40.1,35.8-77.7,62.9-111.5c-57.8,8.4-109.2,36.5-147.2,77.3C99.6,100.6,127.9,112,157,119.9   z" id="XMLID_8_"/><path d="M157,392.1c-29.1,7.8-57.4,19.2-84.3,34.1c37.9,40.8,89.4,69,147.2,77.3C192.8,469.8,171.7,432.2,157,392.1z   " id="XMLID_7_"/><path d="M265.4,379.1v126.8c31.5-35.6,55.1-75.8,70.8-118.3C312.9,382.6,289.2,379.7,265.4,379.1z" id="XMLID_6_"/><path d="M354.7,392.1c-14.4,39.6-35.3,77.3-62.7,111.5c57.8-8.4,109.3-36.5,147.2-77.3   C412.3,411.3,383.9,399.9,354.7,392.1z" id="XMLID_5_"/><path d="M354.7,119.9c29.2-7.9,57.6-19.3,84.6-34.2c-38-40.8-89.4-69-147.2-77.3C319.5,42.6,340.3,80.4,354.7,119.9z   " id="XMLID_4_"/><path d="M265.4,265.4v94.8c25.8,0.6,51.6,3.7,77,9.3c10.6-33.9,16.4-69,17.3-104.2H265.4z" id="XMLID_3_"/><path d="M506,265.4H378.6c-0.9,36.7-6.8,73.3-17.8,108.7c31.5,8.6,62.1,21.1,91.1,37.5   C484,371.2,504,320.6,506,265.4z" id="XMLID_2_"/><path d="M378.6,246.6H506c-2-55.2-22-105.8-54.1-146.2c-29,16.4-59.6,29-91.1,37.5   C371.7,173.2,377.7,209.8,378.6,246.6z" id="XMLID_1_"/></g></svg>